<?xml version="1.0" ?>
<svg xmlns="http://www.w3.org/2000/svg" viewBox="-118.52727272727276 -65.17207367339972 330.5272727273424 203.5219308282729" width="330.5272727273424mm" height="203.5219308282729mm">
  <line x1="0.0" y1="0.0" x2="53.00000000000001" y2="0.0" stroke="black" fill="none" id="dxf_seg0"/>
  <line x1="0.0" y1="0.0" x2="2.7554552980815448e-15" y2="45.0" stroke="black" fill="none" id="dxf_seg1"/>
  <line x1="2.7554552980815448e-15" y1="45.0" x2="-52.999999999999986" y2="45.000000000000014" stroke="black" fill="none" id="dxf_seg2"/>
  <line x1="-52.999999999999986" y1="45.000000000000014" x2="-106.00000000000003" y2="45.000000000000014" stroke="black" fill="none" id="dxf_seg3"/>
  <line x1="-106.00000000000003" y1="45.000000000000014" x2="-118.52727272727276" y2="41.643327389362874" stroke="black" fill="none" id="dxf_seg4"/>
  <line x1="-118.52727272727276" y1="41.643327389362874" x2="-118.52727272727276" y2="3.356672610637191" stroke="black" fill="none" id="dxf_seg5"/>
  <line x1="-118.52727272727276" y1="3.356672610637191" x2="-106.00000000000001" y2="2.5897261631054642e-14" stroke="black" fill="none" id="dxf_seg6"/>
  <line x1="-106.00000000000001" y1="2.5897261631054642e-14" x2="-106.00000000000003" y2="-31.79999999999998" stroke="black" fill="none" id="dxf_seg7"/>
  <line x1="-106.00000000000003" y1="-31.79999999999998" x2="-82.75906134043387" y2="-45.2908206309573" stroke="black" fill="none" id="dxf_seg8"/>
  <path d="M -82.75906134043387,-45.2908206309573 A 2.999999999999967,2.999999999999967 0 0,1 -78.65842515441472,-44.202343313825736" stroke="black" fill="none" id="dxf_seg9"/>
  <line x1="-78.65842515441472" y1="-44.202343313825736" x2="-53.00000000000001" y2="1.2981256070961948e-14" stroke="black" fill="none" id="dxf_seg10"/>
  <line x1="-53.00000000000001" y1="1.2981256070961948e-14" x2="-53.00000000000003" y2="-50.109090909090895" stroke="black" fill="none" id="dxf_seg11"/>
  <line x1="-53.00000000000003" y1="-50.109090909090895" x2="-39.968782488972955" y2="-46.61738670061689" stroke="black" fill="none" id="dxf_seg12"/>
  <path d="M -39.968782488972955,-46.61738670061689 A 10.479412667651504,10.479412667651504 0 0,1 -35.36948691001656,-28.987783179634683" stroke="black" fill="none" id="dxf_seg13"/>
  <line x1="-35.36948691001656" y1="-28.987783179634683" x2="-40.892144975059786" y2="-23.60909090908777" stroke="black" fill="none" id="dxf_seg14"/>
  <line x1="-40.892144975059786" y1="-23.60909090908777" x2="0.0" y2="0.0" stroke="black" fill="none" id="dxf_seg15"/>
  <line x1="2.7554552980815448e-15" y1="45.0" x2="53.00000000000001" y2="45.0" stroke="black" fill="none" id="dxf_seg16"/>
  <line x1="53.00000000000001" y1="45.0" x2="53.00000000000001" y2="0.0" stroke="black" fill="none" id="dxf_seg17"/>
  <line x1="0.0" y1="0.0" x2="-53.00000000000001" y2="1.2981256070961948e-14" stroke="black" fill="none" id="dxf_seg18"/>
  <line x1="-53.00000000000001" y1="1.2981256070961948e-14" x2="-106.00000000000001" y2="2.5897261631054642e-14" stroke="black" fill="none" id="dxf_seg19"/>
  <line x1="-52.999999999999986" y1="45.000000000000014" x2="-53.00000000000001" y2="1.2981256070961948e-14" stroke="black" fill="none" id="dxf_seg20"/>
  <line x1="-106.00000000000003" y1="45.000000000000014" x2="-106.00000000000001" y2="2.5897261631054642e-14" stroke="black" fill="none" id="dxf_seg21"/>
  <line x1="53.00000000000001" y1="0.0" x2="106.00000000000001" y2="-4.841306397703414e-31" stroke="black" fill="none" id="dxf_seg22"/>
  <line x1="106.00000000000001" y1="-4.841306397703414e-31" x2="106.00000000000001" y2="44.999999999999986" stroke="black" fill="none" id="dxf_seg23"/>
  <line x1="106.00000000000001" y1="44.999999999999986" x2="159.00000000000006" y2="44.999999999999986" stroke="black" fill="none" id="dxf_seg24"/>
  <line x1="159.00000000000006" y1="44.999999999999986" x2="211.99999999999991" y2="44.999999999999964" stroke="black" fill="none" id="dxf_seg25"/>
  <line x1="211.99999999999991" y1="44.999999999999964" x2="208.941528370984" y2="62.3454545454545" stroke="black" fill="none" id="dxf_seg26"/>
  <line x1="208.941528370984" y1="62.3454545454545" x2="162.05847162901603" y2="62.3454545454545" stroke="black" fill="none" id="dxf_seg27"/>
  <line x1="162.05847162901603" y1="62.3454545454545" x2="159.00000000000006" y2="44.999999999999986" stroke="black" fill="none" id="dxf_seg28"/>
  <line x1="159.00000000000006" y1="44.999999999999986" x2="159.00000000000003" y2="-1.947188398592665e-14" stroke="black" fill="none" id="dxf_seg29"/>
  <line x1="159.00000000000003" y1="-1.947188398592665e-14" x2="106.00000000000001" y2="-4.841306397703414e-31" stroke="black" fill="none" id="dxf_seg30"/>
  <line x1="106.00000000000001" y1="44.999999999999986" x2="53.00000000000001" y2="45.0" stroke="black" fill="none" id="dxf_seg31"/>
  <line x1="211.99999999999991" y1="44.999999999999964" x2="212.00000000000003" y2="-1.0382566895666569e-14" stroke="black" fill="none" id="dxf_seg32"/>
  <line x1="212.00000000000003" y1="-1.0382566895666569e-14" x2="159.00000000000003" y2="-1.947188398592665e-14" stroke="black" fill="none" id="dxf_seg33"/>
  <line x1="2.7554552980815448e-15" y1="45.0" x2="-26.5" y2="90.89934640057528" stroke="black" fill="none" id="dxf_seg34"/>
  <line x1="9.283244823342166e-16" y1="136.7986928011505" x2="-26.5" y2="90.89934640057528" stroke="black" fill="none" id="dxf_seg35"/>
  <line x1="9.283244823342166e-16" y1="136.7986928011505" x2="52.99999999999998" y2="136.79869280115048" stroke="black" fill="none" id="dxf_seg36"/>
  <line x1="52.99999999999998" y1="136.79869280115048" x2="79.5" y2="90.89934640057524" stroke="black" fill="none" id="dxf_seg37"/>
  <path d="M 79.5,90.89934640057524 A 11.563636363618587,11.563636363618587 0 0,1 83.7325846692725,106.69556743338653" stroke="black" fill="none" id="dxf_seg38"/>
  <line x1="83.73258466927248" y1="106.69556743338653" x2="68.79622103287652" y2="132.56610813189266" stroke="black" fill="none" id="dxf_seg39"/>
  <path d="M 68.79622103287653,132.56610813189266 A 11.563636363696236,11.563636363696236 0 0,1 52.99999999999998,136.79869280115048" stroke="black" fill="none" id="dxf_seg40"/>
  <line x1="53.00000000000001" y1="45.0" x2="79.5" y2="90.89934640057524" stroke="black" fill="none" id="dxf_seg41"/>
  <line x1="53.00000000000001" y1="0.0" x2="79.50000000000402" y2="-45.89934640064132" stroke="black" fill="none" id="dxf_seg42"/>
  <line x1="-26.500000000065604" y1="-45.89934640052996" x2="0.0" y2="0.0" stroke="black" fill="none" id="dxf_seg43"/>
  <line x1="-26.500000000065604" y1="-45.89934640052996" x2="-15.372885721117846" y2="-65.1720736732972" stroke="black" fill="none" id="dxf_seg44"/>
  <line x1="68.37288572100859" y1="-65.1720736732972" x2="79.50000000000402" y2="-45.89934640064132" stroke="black" fill="none" id="dxf_seg45"/>
  <line x1="68.37288572100859" y1="-65.1720736732972" x2="60.66379481191639" y2="-65.17207367329719" stroke="black" fill="none" id="dxf_seg46"/>
  <line x1="0.0452960970910438" y1="-45.899346400575396" x2="52.95470390281592" y2="-45.899346400602255" stroke="black" fill="none" id="dxf_seg47"/>
  <line x1="52.95470390281592" y1="-45.899346400602255" x2="52.95470390283677" y2="-57.462982764219376" stroke="black" fill="none" id="dxf_seg48"/>
  <line x1="0.0452960970910438" y1="-45.899346400575396" x2="0.04529609709464782" y2="-57.46298276422665" stroke="black" fill="none" id="dxf_seg49"/>
  <line x1="-15.372885721117846" y1="-65.1720736732972" x2="-7.663794812027296" y2="-65.17207367330013" stroke="black" fill="none" id="dxf_seg50"/>
  <path d="M -7.663794812027297,-65.17207367330012 A 7.709090909060112,7.709090909060112 0 0,1 0.04529609707493254,-57.46298276424001" stroke="black" fill="none" id="dxf_seg51"/>
  <path d="M 52.95470390283677,-57.46298276422375 A 7.709090909089751,7.709090909089751 0 0,1 60.66379481191639,-65.1720736733135" stroke="black" fill="none" id="dxf_seg52"/>
  <path d="M -30.732584669215203,106.69556743342676 A 11.563636363634512,11.563636363634512 0 0,1 -26.499999999998963,90.89934640057707" stroke="black" fill="none" id="dxf_seg53"/>
  <path d="M 4.440892098500626e-15,136.7986928011505 A 11.5636363636367,11.5636363636367 0 0,1 -15.796221032852714,132.56610813193583" stroke="black" fill="none" id="dxf_seg54"/>
  <line x1="-15.796221032852493" y1="132.56610813193572" x2="-30.732584669215196" y2="106.69556743342676" stroke="black" fill="none" id="dxf_seg55"/>
  <line x1="-52.999999999999986" y1="45.000000000000014" x2="-52.999999999999986" y2="62.34545454545456" stroke="black" fill="none" id="dxf_seg56"/>
  <line x1="-52.999999999999986" y1="62.34545454545456" x2="-10.014402851024158" y2="62.34545454545455" stroke="black" fill="none" id="dxf_seg57"/>
  <line x1="106.00000000000001" y1="44.999999999999986" x2="106.00000000000001" y2="62.34545454545454" stroke="black" fill="none" id="dxf_seg58"/>
  <line x1="106.00000000000001" y1="62.34545454545454" x2="63.014402851039726" y2="62.345454545454544" stroke="black" fill="none" id="dxf_seg59"/>
  <line x1="159.00000000000003" y1="2.5897261631054642e-14" x2="159.00000000000003" y2="-31.79999999999998" stroke="black" fill="none" id="dxf_seg60"/>
  <line x1="159.00000000000003" y1="-31.79999999999998" x2="135.75906134043387" y2="-45.29082063095729" stroke="black" fill="none" id="dxf_seg61"/>
  <line x1="131.65842515441472" y1="-44.20234331382574" x2="106.00000000000001" y2="1.2981256070961948e-14" stroke="black" fill="none" id="dxf_seg62"/>
  <line x1="106.00000000000001" y1="1.2981256070961948e-14" x2="106.00000000000001" y2="-50.109090909090895" stroke="black" fill="none" id="dxf_seg63"/>
  <line x1="106.00000000000001" y1="-50.109090909090895" x2="92.96878248897298" y2="-46.617386700616905" stroke="black" fill="none" id="dxf_seg64"/>
  <path d="M 88.36948691001658,-28.987783179634675 A 10.479412667651529,10.479412667651529 0 0,1 92.96878248897298,-46.61738670061691" stroke="black" fill="none" id="dxf_seg65"/>
  <line x1="93.89214497505978" y1="-23.609090909087783" x2="88.36948691001658" y2="-28.987783179634675" stroke="black" fill="none" id="dxf_seg66"/>
  <line x1="53.00000000000001" y1="0.0" x2="93.89214497505978" y2="-23.609090909087783" stroke="black" fill="none" id="dxf_seg67"/>
  <line x1="212.00000000000003" y1="-1.0382566895666569e-14" x2="212.00000000000003" y2="-61.17207367322776" stroke="black" fill="none" id="dxf_seg68"/>
  <line x1="208.0000000000163" y1="-65.17207367329732" x2="163.00000000004894" y2="-65.1720736732878" stroke="black" fill="none" id="dxf_seg69"/>
  <line x1="158.99999999997758" y1="-61.17207367334976" x2="159.00000000000003" y2="-31.79999999999998" stroke="black" fill="none" id="dxf_seg70"/>
  <path d="M 158.9999999999776,-61.17207367335283 A 4.000000000046899,4.000000000046899 0 0,1 163.00000000004894,-65.17207367339972" stroke="black" fill="none" id="dxf_seg71"/>
  <path d="M 208.0000000000163,-65.17207367329732 A 4.000000000069575,4.000000000069575 0 0,1 212.00000000006963,-61.17207367322774" stroke="black" fill="none" id="dxf_seg72"/>
  <path d="M 131.65842515441472,-44.202343313825736 A 2.999999999999976,2.999999999999976 0 0,1 135.75906134043387,-45.290820630957306" stroke="black" fill="none" id="dxf_seg73"/>
</svg>
