0
SECTION
2
HEADER
9
$INSUNITS
70
4
9
$ACADVER
1
AC1014
9
$HANDSEED
5
FFFF
0
ENDSEC
0
SECTION
2
TABLES
0
TABLE
2
VPORT
5
8
100
AcDbSymbolTable
0
ENDTAB
0
TABLE
2
LTYPE
5
5
100
AcDbSymbolTable
0
LTYPE
5
14
100
AcDbSymbolTableRecord
100
AcDbLinetypeTableRecord
2
BYBLOCK
70
0
0
LTYPE
5
15
100
AcDbSymbolTableRecord
100
AcDbLinetypeTableRecord
2
BYLAYER
70
0
0
LTYPE
5
16
100
AcDbSymbolTableRecord
100
AcDbLinetypeTableRecord
2
DASHED
70
0
3
Dashed __ __ __ __ __ __ __ __ __ __ __ __ __ _
72
65
73
2
40
0.75
49
0.5
74
0
49
-0.25
74
0
0
ENDTAB
0
TABLE
2
LAYER
5
2
100
AcDbSymbolTable
70
2
0
LAYER
5
50
100
AcDbSymbolTableRecord
100
AcDbLayerTableRecord
2
0
70
0
62
7
6
CONTINUOUS
0
ENDTAB
0
TABLE
2
STYLE
5
3
100
AcDbSymbolTable
70
1
0
STYLE
5
11
100
AcDbSymbolTableRecord
100
AcDbTextStyleTableRecord
2
STANDARD
70
0
0
ENDTAB
0
TABLE
2
VIEW
5
6
100
AcDbSymbolTable
70
0
0
ENDTAB
0
TABLE
2
UCS
5
7
100
AcDbSymbolTable
70
0
0
ENDTAB
0
TABLE
2
APPID
5
9
100
AcDbSymbolTable
70
2
0
APPID
5
12
100
AcDbSymbolTableRecord
100
AcDbRegAppTableRecord
2
ACAD
70
0
0
ENDTAB
0
TABLE
2
DIMSTYLE
5
A
100
AcDbSymbolTable
70
1
0
ENDTAB
0
TABLE
2
BLOCK_RECORD
5
1
100
AcDbSymbolTable
70
1
0
BLOCK_RECORD
5
1F
100
AcDbSymbolTableRecord
100
AcDbBlockTableRecord
2
*MODEL_SPACE
0
BLOCK_RECORD
5
1B
100
AcDbSymbolTableRecord
100
AcDbBlockTableRecord
2
*PAPER_SPACE
0
ENDTAB
0
ENDSEC
0
SECTION
2
BLOCKS
0
BLOCK
5
20
100
AcDbEntity
100
AcDbBlockBegin
2
*MODEL_SPACE
0
ENDBLK
5
21
100
AcDbEntity
100
AcDbBlockEnd
0
BLOCK
5
1C
100
AcDbEntity
100
AcDbBlockBegin
2
*PAPER_SPACE
0
ENDBLK
5
1D
100
AcDbEntity
100
AcDbBlockEnd
0
ENDSEC
0
SECTION
2
ENTITIES
0
LINE
5
100
100
AcDbEntity
8
0
100
AcDbLine
10
0
20
0
30
0
11
53.000000000000007
21
0
31
0
0
LWPOLYLINE
5
101
100
AcDbEntity
8
0
100
AcDbPolyline
90
15
70
1
43
0.0
10
0
20
0
10
2.7554552980815448e-15
20
45
10
-52.999999999999986
20
45.000000000000014
10
-106.00000000000003
20
45.000000000000014
10
-118.52727272727276
20
41.643327389362874
10
-118.52727272727276
20
3.3566726106371911
10
-106.00000000000001
20
2.5897261631054642e-14
10
-106.00000000000003
20
-31.799999999999979
10
-82.759061340433874
20
-45.290820630957299
42
0.4142135623730962
10
-78.658425154414715
20
-44.202343313825736
10
-53.000000000000007
20
1.2981256070961948e-14
10
-53.000000000000028
20
-50.109090909090895
10
-39.968782488972955
20
-46.61738670061689
42
0.58176051378720506
10
-35.369486910016562
20
-28.987783179634683
10
-40.892144975059786
20
-23.609090909087769
0
LINE
5
102
100
AcDbEntity
8
0
100
AcDbLine
10
2.7554552980815448e-15
20
45
30
0
11
53.000000000000007
21
45
31
0
0
LINE
5
103
100
AcDbEntity
8
0
100
AcDbLine
10
53.000000000000007
20
45
30
0
11
53.000000000000007
21
0
31
0
0
LINE
5
104
100
AcDbEntity
8
0
100
AcDbLine
10
0
20
0
30
0
11
-53.000000000000007
21
1.2981256070961948e-14
31
0
0
LINE
5
105
100
AcDbEntity
8
0
100
AcDbLine
10
-53.000000000000007
20
1.2981256070961948e-14
30
0
11
-106.00000000000001
21
2.5897261631054642e-14
31
0
0
LINE
5
106
100
AcDbEntity
8
0
100
AcDbLine
10
-52.999999999999986
20
45.000000000000014
30
0
11
-53.000000000000007
21
1.2981256070961948e-14
31
0
0
LINE
5
107
100
AcDbEntity
8
0
100
AcDbLine
10
-106.00000000000003
20
45.000000000000014
30
0
11
-106.00000000000001
21
2.5897261631054642e-14
31
0
0
LINE
5
108
100
AcDbEntity
8
0
100
AcDbLine
10
53.000000000000007
20
0
30
0
11
106.00000000000001
21
-4.8413063977034141e-31
31
0
0
LWPOLYLINE
5
109
100
AcDbEntity
8
0
100
AcDbPolyline
90
8
70
1
43
0.0
10
106.00000000000001
20
-4.8413063977034141e-31
10
106.00000000000001
20
44.999999999999986
10
159.00000000000006
20
44.999999999999986
10
211.99999999999991
20
44.999999999999964
10
208.941528370984
20
62.345454545454501
10
162.05847162901603
20
62.345454545454501
10
159.00000000000006
20
44.999999999999986
10
159.00000000000003
20
-1.9471883985926649e-14
0
LINE
5
110
100
AcDbEntity
8
0
100
AcDbLine
10
106.00000000000001
20
44.999999999999986
30
0
11
53.000000000000007
21
45
31
0
0
LINE
5
111
100
AcDbEntity
8
0
100
AcDbLine
10
211.99999999999991
20
44.999999999999964
30
0
11
212.00000000000003
21
-1.0382566895666569e-14
31
0
0
LINE
5
112
100
AcDbEntity
8
0
100
AcDbLine
10
212.00000000000003
20
-1.0382566895666569e-14
30
0
11
159.00000000000003
21
-1.9471883985926649e-14
31
0
0
LINE
5
113
100
AcDbEntity
8
0
100
AcDbLine
10
2.7554552980815448e-15
20
45
30
0
11
53.000000000000007
21
45
31
0
0
LINE
5
114
100
AcDbEntity
8
0
100
AcDbLine
10
53.000000000000007
20
0
30
0
11
0
21
0
31
0
0
LINE
5
115
100
AcDbEntity
8
0
100
AcDbLine
10
2.7554552980815448e-15
20
45
30
0
11
-26.5
21
90.899346400575283
31
0
0
LINE
5
116
100
AcDbEntity
8
0
100
AcDbLine
10
9.2832448233421659e-16
20
136.79869280115051
30
0
11
-26.5
21
90.899346400575283
31
0
0
LINE
5
117
100
AcDbEntity
8
0
100
AcDbLine
10
9.2832448233421659e-16
20
136.79869280115051
30
0
11
52.999999999999979
21
136.79869280115048
31
0
0
LWPOLYLINE
5
118
100
AcDbEntity
8
0
100
AcDbPolyline
90
4
70
1
43
0.0
10
52.999999999999979
20
136.79869280115048
10
79.5
20
90.89934640057524
42
0.41421356237307982
10
83.732584669272484
20
106.69556743338653
10
68.796221032876517
20
132.56610813189266
42
0.41421356237126788
0
LINE
5
119
100
AcDbEntity
8
0
100
AcDbLine
10
53.000000000000007
20
45
30
0
11
79.5
21
90.89934640057524
31
0
0
LINE
5
120
100
AcDbEntity
8
0
100
AcDbLine
10
53.000000000000007
20
0
30
0
11
79.500000000004022
21
-45.899346400641321
31
0
0
LINE
5
121
100
AcDbEntity
8
0
100
AcDbLine
10
-26.500000000065604
20
-45.899346400529957
30
0
11
0
21
0
31
0
0
LINE
5
122
100
AcDbEntity
8
0
100
AcDbLine
10
-26.500000000065604
20
-45.899346400529957
30
0
11
-15.372885721117846
21
-65.172073673297206
31
0
0
LINE
5
123
100
AcDbEntity
8
0
100
AcDbLine
10
68.372885721008586
20
-65.172073673297206
30
0
11
79.500000000004022
21
-45.899346400641321
31
0
0
LINE
5
124
100
AcDbEntity
8
0
100
AcDbLine
10
68.372885721008586
20
-65.172073673297206
30
0
11
60.663794811916389
21
-65.172073673297191
31
0
0
LINE
5
125
100
AcDbEntity
8
0
100
AcDbLine
10
0.045296097091043798
20
-45.899346400575396
30
0
11
52.954703902815922
21
-45.899346400602255
31
0
0
LINE
5
126
100
AcDbEntity
8
0
100
AcDbLine
10
52.954703902815922
20
-45.899346400602255
30
0
11
52.954703902836769
21
-57.462982764219376
31
0
0
LINE
5
127
100
AcDbEntity
8
0
100
AcDbLine
10
0.045296097091043798
20
-45.899346400575396
30
0
11
0.045296097094647818
21
-57.462982764226652
31
0
0
LINE
5
128
100
AcDbEntity
8
0
100
AcDbLine
10
-15.372885721117846
20
-65.172073673297206
30
0
11
-7.6637948120272963
21
-65.172073673300133
31
0
0
ARC
5
129
100
AcDbEntity
8
0
100
AcDbCircle
10
-7.6637948119851798
20
-57.46298276424001
30
0
40
7.7090909090601123
210
0
220
0
230
1
100
AcDbArc
50
-90.000000000313022
51
0
0
ARC
5
130
100
AcDbEntity
8
0
100
AcDbCircle
10
60.663794811926522
20
-57.462982764223753
30
0
40
7.7090909090897508
210
0
220
0
230
1
100
AcDbArc
50
180
51
269.99999999992468
0
ARC
5
131
100
AcDbEntity
8
0
100
AcDbCircle
10
-20.718181818181836
20
100.91374925161014
30
0
40
11.563636363634512
210
0
220
0
230
1
100
AcDbArc
50
150.00000000000367
51
240.00000000000074
0
ARC
5
132
100
AcDbEntity
8
0
100
AcDbCircle
10
-5.7818181818187684
20
126.78428995011586
30
0
40
11.5636363636367
210
0
220
-0
230
1
100
AcDbArc
50
59.999999999997591
51
149.99999999999065
0
LINE
5
133
100
AcDbEntity
8
0
100
AcDbLine
10
-15.796221032852493
20
132.56610813193572
30
0
11
-30.732584669215196
21
106.69556743342676
31
0
0
LINE
5
134
100
AcDbEntity
8
0
100
AcDbLine
10
-52.999999999999986
20
45.000000000000014
30
0
11
-52.999999999999986
21
62.345454545454558
31
0
0
LINE
5
135
100
AcDbEntity
8
0
100
AcDbLine
10
-52.999999999999986
20
62.345454545454558
30
0
11
-10.014402851024158
21
62.345454545454551
31
0
0
LINE
5
136
100
AcDbEntity
8
0
100
AcDbLine
10
106.00000000000001
20
44.999999999999986
30
0
11
106.00000000000001
21
62.345454545454537
31
0
0
LINE
5
137
100
AcDbEntity
8
0
100
AcDbLine
10
106.00000000000001
20
62.345454545454537
30
0
11
63.014402851039726
21
62.345454545454544
31
0
0
LINE
5
138
100
AcDbEntity
8
0
100
AcDbLine
10
159.00000000000003
20
2.5897261631054642e-14
30
0
11
159.00000000000003
21
-31.799999999999979
31
0
0
LINE
5
139
100
AcDbEntity
8
0
100
AcDbLine
10
159.00000000000003
20
-31.799999999999979
30
0
11
135.75906134043387
21
-45.290820630957292
31
0
0
LINE
5
140
100
AcDbEntity
8
0
100
AcDbLine
10
131.65842515441472
20
-44.202343313825743
30
0
11
106.00000000000001
21
1.2981256070961948e-14
31
0
0
LINE
5
141
100
AcDbEntity
8
0
100
AcDbLine
10
106.00000000000001
20
1.2981256070961948e-14
30
0
11
106.00000000000001
21
-50.109090909090895
31
0
0
LINE
5
142
100
AcDbEntity
8
0
100
AcDbLine
10
106.00000000000001
20
-50.109090909090895
30
0
11
92.968782488972977
21
-46.617386700616905
31
0
0
ARC
5
143
100
AcDbEntity
8
0
100
AcDbCircle
10
95.681054068849818
20
-36.495051360591482
30
0
40
10.479412667651529
210
0
220
0
230
1
100
AcDbArc
50
134.24338245429433
51
254.99999999999994
0
LINE
5
144
100
AcDbEntity
8
0
100
AcDbLine
10
93.892144975059779
20
-23.609090909087783
30
0
11
88.369486910016576
21
-28.987783179634675
31
0
0
LINE
5
145
100
AcDbEntity
8
0
100
AcDbLine
10
53.000000000000007
20
0
30
0
11
93.892144975059779
21
-23.609090909087783
31
0
0
LINE
5
146
100
AcDbEntity
8
0
100
AcDbLine
10
212.00000000000003
20
-1.0382566895666569e-14
30
0
11
212.00000000000003
21
-61.172073673227757
31
0
0
LINE
5
147
100
AcDbEntity
8
0
100
AcDbLine
10
208.00000000001631
20
-65.172073673297319
30
0
11
163.00000000004894
21
-65.172073673287798
31
0
0
LINE
5
148
100
AcDbEntity
8
0
100
AcDbLine
10
158.99999999997758
20
-61.172073673349757
30
0
11
159.00000000000003
21
-31.799999999999979
31
0
0
ARC
5
149
100
AcDbEntity
8
0
100
AcDbCircle
10
163.0000000000245
20
-61.172073673352827
30
0
40
4.0000000000468994
210
0
220
0
230
1
100
AcDbArc
50
180
51
270.0000000003501
0
ARC
5
150
100
AcDbEntity
8
0
100
AcDbCircle
10
208.00000000000006
20
-61.172073673227743
30
0
40
4.0000000000695746
210
0
220
0
230
1
100
AcDbArc
50
270.00000000023283
51
360
0
ARC
5
151
100
AcDbEntity
8
0
100
AcDbCircle
10
134.25298190599008
20
-42.696263879381945
30
0
40
2.999999999999976
210
0
220
0
230
1
100
AcDbArc
50
210.13416152414013
51
300.13416152414027
0
ENDSEC
0
SECTION
2
OBJECTS
0
DICTIONARY
5
C
100
AcDbDictionary
3
ACAD_GROUP
350
D
3
ACAD_MLINESTYLE
350
17
0
DICTIONARY
5
D
100
AcDbDictionary
0
DICTIONARY
5
1A
330
C
100
AcDbDictionary
0
DICTIONARY
5
17
100
AcDbDictionary
0
ENDSEC
0
EOF
